<svg width="499" height="68" viewBox="0 0 499 68" fill="none" xmlns="http://www.w3.org/2000/svg">
<path d="M14.3216 52.91C11.6149 52.91 9.0249 52.6067 6.55156 52C4.1249 51.3933 2.0249 50.5767 0.251563 49.55L1.09156 40.17C3.19156 41.4767 5.3849 42.5033 7.67156 43.25C10.0049 43.95 12.1516 44.3 14.1116 44.3C16.3516 44.3 18.1716 43.8333 19.5716 42.9C20.9716 41.9667 21.6716 40.73 21.6716 39.19C21.6716 37.93 21.2049 36.9733 20.2716 36.32C19.3382 35.62 17.8682 34.8733 15.8616 34.08L14.1816 33.38C13.9482 33.2867 13.6916 33.1933 13.4116 33.1C13.1316 32.96 12.8049 32.82 12.4316 32.68C9.81823 31.6067 7.71823 30.6033 6.13156 29.67C4.5449 28.69 3.16823 27.3367 2.00156 25.61C0.881563 23.8833 0.321563 21.6433 0.321563 18.89C0.321563 14.41 1.83823 10.8867 4.87156 8.32C7.9049 5.75333 12.1282 4.47 17.5416 4.47C21.6482 4.47 25.8482 5.31 30.1416 6.99L28.6016 16.23C26.8749 15.25 25.0082 14.48 23.0016 13.92C21.0416 13.36 19.1749 13.08 17.4016 13.08C15.2082 13.08 13.5049 13.5233 12.2916 14.41C11.0782 15.25 10.4716 16.3933 10.4716 17.84C10.4716 19.1 10.8916 20.08 11.7316 20.78C12.5716 21.48 13.9249 22.2267 15.7916 23.02L18.6616 24.14C21.3682 25.1667 23.6082 26.17 25.3816 27.15C27.1549 28.13 28.6716 29.5533 29.9316 31.42C31.1916 33.24 31.8216 35.62 31.8216 38.56C31.8216 43.0867 30.2816 46.61 27.2016 49.13C24.1216 51.65 19.8282 52.91 14.3216 52.91ZM49.3227 52.07C46.0093 52.07 43.536 52.0467 41.9027 52V5.38C43.9093 5.33333 46.8727 5.31 50.7927 5.31C54.7593 5.31 57.7227 5.33333 59.6827 5.38C64.256 5.42667 68.2227 6.36 71.5827 8.18C74.9893 9.95333 77.6027 12.4967 79.4227 15.81C81.2893 19.1233 82.2227 22.9967 82.2227 27.43C82.2227 32.2833 81.1493 36.5533 79.0027 40.24C76.9027 43.9267 73.916 46.7967 70.0427 48.85C66.216 50.9033 61.7593 51.9533 56.6727 52C55.0393 52.0467 52.5893 52.07 49.3227 52.07ZM56.6027 43.18C61.316 43.18 65.026 41.8033 67.7327 39.05C70.4393 36.2967 71.7927 32.5167 71.7927 27.71C71.7927 23.37 70.626 20.0333 68.2927 17.7C66.006 15.3667 62.6927 14.2 58.3527 14.2H52.0527V43.18H56.6027ZM114.788 52.91C107.321 52.91 101.488 50.9033 97.288 46.89C93.088 42.8767 90.988 37.2067 90.988 29.88C90.988 24.8867 91.968 20.4767 93.928 16.65C95.9346 12.8233 98.758 9.88333 102.398 7.83C106.038 5.73 110.238 4.68 114.998 4.68C118.871 4.68 122.605 5.38 126.198 6.78L124.308 15.81C121.135 14.3633 118.055 13.64 115.068 13.64C110.821 13.64 107.461 15.04 104.988 17.84C102.515 20.5933 101.278 24.28 101.278 28.9C101.278 33.6133 102.585 37.2767 105.198 39.89C107.811 42.5033 111.428 43.81 116.048 43.81C119.081 43.81 122.021 43.32 124.868 42.34L126.408 50.95C123.001 52.2567 119.128 52.91 114.788 52.91ZM152.17 53.05C148.53 53.05 145.31 52.2567 142.51 50.67C139.757 49.0833 137.61 46.8667 136.07 44.02C134.53 41.1267 133.76 37.79 133.76 34.01C133.76 30.23 134.507 26.9167 136 24.07C137.54 21.1767 139.687 18.9367 142.44 17.35C145.24 15.7633 148.46 14.97 152.1 14.97C155.74 14.97 158.937 15.7633 161.69 17.35C164.49 18.89 166.637 21.0833 168.13 23.93C169.67 26.7767 170.44 30.0667 170.44 33.8C170.44 37.58 169.67 40.94 168.13 43.88C166.637 46.7733 164.49 49.0367 161.69 50.67C158.937 52.2567 155.763 53.05 152.17 53.05ZM152.1 44.51C154.62 44.51 156.627 43.5533 158.12 41.64C159.66 39.68 160.43 37.1133 160.43 33.94C160.43 30.7667 159.66 28.2467 158.12 26.38C156.627 24.4667 154.62 23.51 152.1 23.51C149.58 23.51 147.55 24.4667 146.01 26.38C144.517 28.2467 143.77 30.7667 143.77 33.94C143.77 37.1133 144.517 39.68 146.01 41.64C147.55 43.5533 149.58 44.51 152.1 44.51ZM179.856 15.95H189.516V21.55C192.363 17.1633 196.213 14.97 201.066 14.97C203.82 14.97 206.153 15.6233 208.066 16.93C210.026 18.19 211.45 20.01 212.336 22.39C213.97 19.8233 215.79 17.9567 217.796 16.79C219.85 15.5767 222.183 14.97 224.796 14.97C228.67 14.97 231.68 16.1367 233.826 18.47C236.02 20.7567 237.116 23.9533 237.116 28.06V52H227.246V29.6C227.246 27.7333 226.78 26.2867 225.846 25.26C224.96 24.1867 223.746 23.65 222.206 23.65C220.293 23.65 218.52 24.4433 216.886 26.03C215.253 27.6167 214.04 29.6467 213.246 32.12V52H203.376V29.6C203.376 27.78 202.91 26.3333 201.976 25.26C201.043 24.1867 199.806 23.65 198.266 23.65C196.54 23.65 194.906 24.3033 193.366 25.61C191.873 26.87 190.66 28.6667 189.726 31V52H179.856V15.95ZM247.991 15.95H257.651V21.55C260.498 17.1633 264.348 14.97 269.201 14.97C271.955 14.97 274.288 15.6233 276.201 16.93C278.161 18.19 279.585 20.01 280.471 22.39C282.105 19.8233 283.925 17.9567 285.931 16.79C287.985 15.5767 290.318 14.97 292.931 14.97C296.805 14.97 299.815 16.1367 301.961 18.47C304.155 20.7567 305.251 23.9533 305.251 28.06V52H295.381V29.6C295.381 27.7333 294.915 26.2867 293.981 25.26C293.095 24.1867 291.881 23.65 290.341 23.65C288.428 23.65 286.655 24.4433 285.021 26.03C283.388 27.6167 282.175 29.6467 281.381 32.12V52H271.511V29.6C271.511 27.78 271.045 26.3333 270.111 25.26C269.178 24.1867 267.941 23.65 266.401 23.65C264.675 23.65 263.041 24.3033 261.501 25.61C260.008 26.87 258.795 28.6667 257.861 31V52H247.991V15.95ZM328.097 52.98C324.27 52.98 321.26 51.8133 319.067 49.48C316.873 47.1467 315.777 43.95 315.777 39.89V15.95H325.647V38.28C325.647 40.1933 326.113 41.6867 327.047 42.76C327.98 43.7867 329.24 44.3 330.827 44.3C332.413 44.3 333.93 43.7867 335.377 42.76C336.87 41.7333 338.107 40.3567 339.087 38.63V15.95H348.957V52H339.087V47.24C337.733 49.06 336.17 50.4833 334.397 51.51C332.67 52.49 330.57 52.98 328.097 52.98ZM360.131 15.95H369.791V22.18C371.284 19.7067 373.011 17.8867 374.971 16.72C376.931 15.5533 379.218 14.97 381.831 14.97C385.704 14.97 388.738 16.1367 390.931 18.47C393.124 20.7567 394.221 23.9533 394.221 28.06V52H384.351V29.6C384.351 27.7333 383.884 26.2867 382.951 25.26C382.018 24.1867 380.758 23.65 379.171 23.65C377.304 23.65 375.531 24.35 373.851 25.75C372.171 27.15 370.888 28.9233 370.001 31.07V52H360.131V15.95ZM409.292 0.899999H420.562V10H409.292V0.899999ZM403.832 43.53H410.552V24.42H403.832V15.95H420.422V43.53H426.442V52H403.832V43.53ZM447.287 53.05C443.927 53.05 441.314 52.21 439.447 50.53C437.627 48.8033 436.717 46.3767 436.717 43.25V24.42H431.117V15.95H436.717V8.25C440.031 7.69 443.297 7.27 446.517 6.99V15.95H455.617V24.42H446.517V41.43C446.517 42.41 446.797 43.1567 447.357 43.67C447.964 44.1833 448.804 44.44 449.877 44.44C451.184 44.44 452.677 44.1367 454.357 43.53L456.527 50.95C453.541 52.35 450.461 53.05 447.287 53.05ZM471.619 67.68C469.472 67.68 467.232 67.1667 464.899 66.14L466.369 58.02C468.142 58.9067 469.636 59.35 470.849 59.35C472.296 59.35 473.369 58.8833 474.069 57.95C474.816 57.0167 475.609 55.3833 476.449 53.05L462.379 16.09L472.599 15.25L481.209 41.08L489.189 15.95H498.919C495.932 25.0033 492.782 33.9167 489.469 42.69C486.202 51.4633 483.659 57.4833 481.839 60.75C480.532 63.0833 479.062 64.81 477.429 65.93C475.842 67.0967 473.906 67.68 471.619 67.68Z" fill="black"/>
</svg>
